<svg xmlns="http://www.w3.org/2000/svg" width="495" height="185" viewBox="0 0 495 185">
  <rect x="0.5" y="0.5" rx="4.5" width="494" height="184" fill="#141321"/>
  <text x="25" y="35" font-family="'Segoe UI', Ubuntu, 'Helvetica Neue', sans-serif" font-size="18" font-weight="bold" fill="#fe428e">Most Used Languages</text>
  <g transform="translate(25, 50)">
    <clipPath id="lc">
      <rect x="0" y="0" width="445" height="8" rx="5"/>
    </clipPath>
    <g clip-path="url(#lc)">
      <rect x="0.0" y="0" width="218.3" height="8" fill="#3572A5"/>
      <rect x="218.3" y="0" width="170.4" height="8" fill="#3178c6"/>
      <rect x="388.7" y="0" width="19.7" height="8" fill="#89e051"/>
      <rect x="408.4" y="0" width="14.0" height="8" fill="#f1e05a"/>
      <rect x="422.4" y="0" width="13.4" height="8" fill="#e34c26"/>
      <rect x="435.8" y="0" width="4.6" height="8" fill="#563d7c"/>
      <rect x="440.4" y="0" width="2.7" height="8" fill="#8b949e"/>
      <rect x="443.1" y="0" width="0.6" height="8" fill="#b07219"/>
    </g>
  </g>
  <g transform="translate(25, 75)">
    <g transform="translate(0, 0)"><circle cx="5" cy="-3" r="5" fill="#3572A5"/><text x="15" y="1" font-family="'Segoe UI', Ubuntu, sans-serif" font-size="11.5" fill="#a9fef7">Python 49.05%</text></g>
    <g transform="translate(220, 0)"><circle cx="5" cy="-3" r="5" fill="#3178c6"/><text x="15" y="1" font-family="'Segoe UI', Ubuntu, sans-serif" font-size="11.5" fill="#a9fef7">TypeScript 38.29%</text></g>
    <g transform="translate(0, 25)"><circle cx="5" cy="-3" r="5" fill="#89e051"/><text x="15" y="1" font-family="'Segoe UI', Ubuntu, sans-serif" font-size="11.5" fill="#a9fef7">Shell 4.43%</text></g>
    <g transform="translate(220, 25)"><circle cx="5" cy="-3" r="5" fill="#f1e05a"/><text x="15" y="1" font-family="'Segoe UI', Ubuntu, sans-serif" font-size="11.5" fill="#a9fef7">JavaScript 3.15%</text></g>
    <g transform="translate(0, 50)"><circle cx="5" cy="-3" r="5" fill="#e34c26"/><text x="15" y="1" font-family="'Segoe UI', Ubuntu, sans-serif" font-size="11.5" fill="#a9fef7">HTML 3.01%</text></g>
    <g transform="translate(220, 50)"><circle cx="5" cy="-3" r="5" fill="#563d7c"/><text x="15" y="1" font-family="'Segoe UI', Ubuntu, sans-serif" font-size="11.5" fill="#a9fef7">CSS 1.03%</text></g>
    <g transform="translate(0, 75)"><circle cx="5" cy="-3" r="5" fill="#8b949e"/><text x="15" y="1" font-family="'Segoe UI', Ubuntu, sans-serif" font-size="11.5" fill="#a9fef7">PLpgSQL 0.61%</text></g>
    <g transform="translate(220, 75)"><circle cx="5" cy="-3" r="5" fill="#b07219"/><text x="15" y="1" font-family="'Segoe UI', Ubuntu, sans-serif" font-size="11.5" fill="#a9fef7">Java 0.14%</text></g>
  </g>
</svg>